<?xml version="1.0" encoding="UTF-8"?>
<mxfile host="app.diagrams.net" agent="Mozilla/5.0 (Windows NT 10.0; Win64; x64) AppleWebKit/537.36 (KHTML, like Gecko) Chrome/135.0.0.0 Safari/537.36" version="26.2.12">
  <diagram name="ページ1" id="BNYSh_9CXcIvf2kKUG1t">
    <mxGraphModel dx="1467" dy="719" grid="1" gridSize="10" guides="1" tooltips="1" connect="1" arrows="1" fold="1" page="1" pageScale="1" pageWidth="827" pageHeight="1169" math="0" shadow="0">
      <root>
        <mxCell id="0" />
        <mxCell id="1" parent="0" />
        <mxCell id="a5Do1ZFmAYG2ZkTtzkYd-1" value="" style="rounded=0;whiteSpace=wrap;html=1;" parent="1" vertex="1">
          <mxGeometry x="400" y="230" width="480" height="640" as="geometry" />
        </mxCell>
        <mxCell id="n8WTqfIcoDv5qlmcL_Hy-2" value="" style="shape=image;verticalLabelPosition=bottom;labelBackgroundColor=default;verticalAlign=top;aspect=fixed;imageAspect=0;image=data:image/png,iVBORw0KGgoAAAANSUhEUgAAAGsAAACoCAMAAADQHeAkAAAAAXNSR0IArs4c6QAAAARnQU1BAACxjwv8YQUAAABsUExURQAAAAAAAAAAAAAAAAAAAAAAAAAAAAAAAAAAAAAAAAAAAAAAAAAAAAAAAAAAAAAAAAAAAAAAAAAAAAAAAAAAAAAAAAAAAAAAAAAAAAAAAAAAAAAAAAAAAAAAAAAAAAAAAAAAAAAAAAAAAAAAAHQi/6oAAAAkdFJOUwAQYIC3v2ggcP/Phyj3QK+nGOdYCFCX7484MN/HSHif1/T5ShR0x1IAAAAJcEhZcwAAFxEAABcRAcom8z8AAALXSURBVHhe7Zprd6IwEIZBQHjRoKYo1vvu/v//uIe6be3IZZIJnv0wz5eevqU8kssk5BhFiqIoiqIo/xfxLEnSLMuSZJ7TvwUlLzI8UC6W9IpQxAsDIEuKqqqqebJqf1tv6FVBKCzM+i3+DurtroFJHpJAbEpg9dRD8R6w7zQVcrA4VjRsWZ5g3mgoYmtw6umZeg0kNBTwbrCuafhFARQ08ya3WNPskTlwppkndYlT/1O17NEEmmkFjj199UWKlEZebCwONKNsDLY082GPFY2euaCkkQe5MWMt2PapDfFgCa406qLgPP0YJ94HzmGGxyqDDfcepXyOzbmjOcGeRq4k3PpTyTvsCmYVX+JEI1dSdC4lz8SwNHKlxNMC2YMBTVy5sV1W7MrAXeLR0MSVK28qt5P5RiNXFpjTqJsKGY1cufDKYTvpmRf2c+AO5QwzGjlz5A2O2ICx9Iyw4+3I3uRlI4rOsJxCX+JCIw9STvXdwsqbsB0d45uAuuR8IAa78dXiwmvocTYNFjT7yRnc6jLKFsOL2LKRr8lfXGAGNhPLI3efwOI68CpSNSiDvlvugV1371+ALKgqimYGtqPin0sE7KtPqhK4Pb6at4MmA+zgsPFlZgGkRXVvy2rWHjo0SXfLiqnnp/shir3df96S0YoiIJ6tsw+RzdKJD4n+AfGWiY+65KhLjrqGeTw8FkJv/QT9BwH01l4Eug0LdclRlxx1yVGXHHXJUZccdclRlxx1ialf56pTIPApXh91il+/w55O9lGnaP4cAx+FdtOqDlH+CtldFb1C9ql6gexbNbnsUTWx7KdqUhlVTSh7Vk0m61JNJOtWTSLrU00g61cFlw2pAsuGVUFlY6qAsnFVMBlHFUjGUwWRcVUBZHyVWOaiEsrcVCKZq0ogc1d5y3xUnjI/lZfMV+Uh81e5ywp/lbts76/6kIX/6kMfec9XPRRFURRFURRFUTj8BWdiLXcAVgaNAAAAAElFTkSuQmCC;" parent="1" vertex="1">
          <mxGeometry x="140" y="410" width="107" height="168" as="geometry" />
        </mxCell>
        <mxCell id="n8WTqfIcoDv5qlmcL_Hy-3" value="" style="shape=image;verticalLabelPosition=bottom;labelBackgroundColor=default;verticalAlign=top;aspect=fixed;imageAspect=0;image=data:image/png,iVBORw0KGgoAAAANSUhEUgAAAGsAAACoCAMAAADQHeAkAAAAAXNSR0IArs4c6QAAAARnQU1BAACxjwv8YQUAAABsUExURQAAAAAAAAAAAAAAAAAAAAAAAAAAAAAAAAAAAAAAAAAAAAAAAAAAAAAAAAAAAAAAAAAAAAAAAAAAAAAAAAAAAAAAAAAAAAAAAAAAAAAAAAAAAAAAAAAAAAAAAAAAAAAAAAAAAAAAAAAAAAAAAHQi/6oAAAAkdFJOUwAQYIC3v2ggcP/Phyj3QK+nGOdYCFCX7484MN/HSHif1/T5ShR0x1IAAAAJcEhZcwAAFxEAABcRAcom8z8AAALXSURBVHhe7Zprd6IwEIZBQHjRoKYo1vvu/v//uIe6be3IZZIJnv0wz5eevqU8kssk5BhFiqIoiqIo/xfxLEnSLMuSZJ7TvwUlLzI8UC6W9IpQxAsDIEuKqqqqebJqf1tv6FVBKCzM+i3+DurtroFJHpJAbEpg9dRD8R6w7zQVcrA4VjRsWZ5g3mgoYmtw6umZeg0kNBTwbrCuafhFARQ08ya3WNPskTlwppkndYlT/1O17NEEmmkFjj199UWKlEZebCwONKNsDLY082GPFY2euaCkkQe5MWMt2PapDfFgCa406qLgPP0YJ94HzmGGxyqDDfcepXyOzbmjOcGeRq4k3PpTyTvsCmYVX+JEI1dSdC4lz8SwNHKlxNMC2YMBTVy5sV1W7MrAXeLR0MSVK28qt5P5RiNXFpjTqJsKGY1cufDKYTvpmRf2c+AO5QwzGjlz5A2O2ICx9Iyw4+3I3uRlI4rOsJxCX+JCIw9STvXdwsqbsB0d45uAuuR8IAa78dXiwmvocTYNFjT7yRnc6jLKFsOL2LKRr8lfXGAGNhPLI3efwOI68CpSNSiDvlvugV1371+ALKgqimYGtqPin0sE7KtPqhK4Pb6at4MmA+zgsPFlZgGkRXVvy2rWHjo0SXfLiqnnp/shir3df96S0YoiIJ6tsw+RzdKJD4n+AfGWiY+65KhLjrqGeTw8FkJv/QT9BwH01l4Eug0LdclRlxx1yVGXHHXJUZccdclRlxx1ialf56pTIPApXh91il+/w55O9lGnaP4cAx+FdtOqDlH+CtldFb1C9ql6gexbNbnsUTWx7KdqUhlVTSh7Vk0m61JNJOtWTSLrU00g61cFlw2pAsuGVUFlY6qAsnFVMBlHFUjGUwWRcVUBZHyVWOaiEsrcVCKZq0ogc1d5y3xUnjI/lZfMV+Uh81e5ywp/lbts76/6kIX/6kMfec9XPRRFURRFURRFUTj8BWdiLXcAVgaNAAAAAElFTkSuQmCC;" parent="1" vertex="1">
          <mxGeometry x="990" y="410" width="107" height="168" as="geometry" />
        </mxCell>
        <mxCell id="n8WTqfIcoDv5qlmcL_Hy-7" value="&lt;p style=&quot;language:ja;margin-top:7.2pt;margin-bottom:0pt;text-align:left;&#xa;direction:ltr;unicode-bidi:embed;vertical-align:baseline;mso-line-break-override:&#xa;none;punctuation-wrap:hanging&quot;&gt;&lt;span style=&quot;font-size:12.0pt;font-family:&amp;quot;Times New Roman&amp;quot;;&#xa;mso-ascii-font-family:&amp;quot;Times New Roman&amp;quot;;mso-fareast-font-family:&amp;quot;ＭＳ Ｐゴシック&amp;quot;;&#xa;mso-bidi-font-family:+mn-cs;mso-bidi-theme-font:minor-bidi;color:black;&#xa;mso-color-index:1;mso-font-kerning:12.0pt;language:en-US;text-combine:letters;&#xa;mso-style-textfill-type:solid;mso-style-textfill-fill-themecolor:text1;&#xa;mso-style-textfill-fill-color:black;mso-style-textfill-fill-alpha:100.0%&quot;&gt;&amp;lt;&amp;lt;include&amp;gt;&amp;gt;&lt;/span&gt;&lt;/p&gt;" style="text;whiteSpace=wrap;html=1;" parent="1" vertex="1">
          <mxGeometry x="595" y="670" width="120" height="50" as="geometry" />
        </mxCell>
        <mxCell id="9jKqP15oDGAoKN6BKpKO-1" value="" style="endArrow=classic;html=1;rounded=0;exitX=0;exitY=0;exitDx=0;exitDy=0;" parent="1" source="9jKqP15oDGAoKN6BKpKO-6" target="9jKqP15oDGAoKN6BKpKO-7" edge="1">
          <mxGeometry width="50" height="50" relative="1" as="geometry">
            <mxPoint x="550" y="610.85" as="sourcePoint" />
            <mxPoint x="623.1699999999996" y="599.1551497618515" as="targetPoint" />
            <Array as="points" />
          </mxGeometry>
        </mxCell>
        <mxCell id="9jKqP15oDGAoKN6BKpKO-2" value="" style="endArrow=classic;html=1;rounded=0;entryX=0.357;entryY=0.998;entryDx=0;entryDy=0;entryPerimeter=0;" parent="1" source="9jKqP15oDGAoKN6BKpKO-6" target="9jKqP15oDGAoKN6BKpKO-12" edge="1">
          <mxGeometry width="50" height="50" relative="1" as="geometry">
            <mxPoint x="560" y="620.85" as="sourcePoint" />
            <mxPoint x="633.1699999999996" y="609.1551497618515" as="targetPoint" />
          </mxGeometry>
        </mxCell>
        <mxCell id="9jKqP15oDGAoKN6BKpKO-3" value="" style="endArrow=classic;html=1;rounded=0;exitX=0.279;exitY=0.036;exitDx=0;exitDy=0;exitPerimeter=0;entryX=0.5;entryY=1;entryDx=0;entryDy=0;" parent="1" source="9jKqP15oDGAoKN6BKpKO-11" target="9jKqP15oDGAoKN6BKpKO-8" edge="1">
          <mxGeometry width="50" height="50" relative="1" as="geometry">
            <mxPoint x="570" y="630.85" as="sourcePoint" />
            <mxPoint x="643.1699999999996" y="619.1551497618515" as="targetPoint" />
          </mxGeometry>
        </mxCell>
        <mxCell id="9jKqP15oDGAoKN6BKpKO-6" value="ログイン情報を保持" style="ellipse;whiteSpace=wrap;html=1;" parent="1" vertex="1">
          <mxGeometry x="598.24" y="404" width="161.76" height="80" as="geometry" />
        </mxCell>
        <mxCell id="9jKqP15oDGAoKN6BKpKO-7" value="プレイヤー名送信" style="ellipse;whiteSpace=wrap;html=1;" parent="1" vertex="1">
          <mxGeometry x="480" y="310" width="170" height="64" as="geometry" />
        </mxCell>
        <mxCell id="9jKqP15oDGAoKN6BKpKO-8" value="座標の送信" style="ellipse;whiteSpace=wrap;html=1;" parent="1" vertex="1">
          <mxGeometry x="480" y="628" width="140" height="50" as="geometry" />
        </mxCell>
        <mxCell id="9jKqP15oDGAoKN6BKpKO-9" value="接続状態を確認する" style="ellipse;whiteSpace=wrap;html=1;" parent="1" vertex="1">
          <mxGeometry x="560" y="520" width="160" height="80" as="geometry" />
        </mxCell>
        <mxCell id="9jKqP15oDGAoKN6BKpKO-11" value="石の設置座標の受信" style="ellipse;whiteSpace=wrap;html=1;" parent="1" vertex="1">
          <mxGeometry x="570" y="730" width="170" height="80" as="geometry" />
        </mxCell>
        <mxCell id="9jKqP15oDGAoKN6BKpKO-12" value="先手後手情報を送信" style="ellipse;whiteSpace=wrap;html=1;" parent="1" vertex="1">
          <mxGeometry x="690" y="260" width="180" height="64" as="geometry" />
        </mxCell>
        <mxCell id="9jKqP15oDGAoKN6BKpKO-14" value="&lt;p style=&quot;language:ja;margin-top:7.2pt;margin-bottom:0pt;text-align:left;&#xa;direction:ltr;unicode-bidi:embed;vertical-align:baseline;mso-line-break-override:&#xa;none;punctuation-wrap:hanging&quot;&gt;&lt;span style=&quot;font-size:12.0pt;font-family:&amp;quot;Times New Roman&amp;quot;;&#xa;mso-ascii-font-family:&amp;quot;Times New Roman&amp;quot;;mso-fareast-font-family:&amp;quot;ＭＳ Ｐゴシック&amp;quot;;&#xa;mso-bidi-font-family:+mn-cs;mso-bidi-theme-font:minor-bidi;color:black;&#xa;mso-color-index:1;mso-font-kerning:12.0pt;language:en-US;text-combine:letters;&#xa;mso-style-textfill-type:solid;mso-style-textfill-fill-themecolor:text1;&#xa;mso-style-textfill-fill-color:black;mso-style-textfill-fill-alpha:100.0%&quot;&gt;&amp;lt;&amp;lt;include&amp;gt;&amp;gt;&lt;/span&gt;&lt;/p&gt;" style="text;whiteSpace=wrap;html=1;" parent="1" vertex="1">
          <mxGeometry x="520" y="380" width="120" height="50" as="geometry" />
        </mxCell>
        <mxCell id="9jKqP15oDGAoKN6BKpKO-15" value="&lt;p style=&quot;language:ja;margin-top:7.2pt;margin-bottom:0pt;text-align:left;&#xa;direction:ltr;unicode-bidi:embed;vertical-align:baseline;mso-line-break-override:&#xa;none;punctuation-wrap:hanging&quot;&gt;&lt;span style=&quot;font-size:12.0pt;font-family:&amp;quot;Times New Roman&amp;quot;;&#xa;mso-ascii-font-family:&amp;quot;Times New Roman&amp;quot;;mso-fareast-font-family:&amp;quot;ＭＳ Ｐゴシック&amp;quot;;&#xa;mso-bidi-font-family:+mn-cs;mso-bidi-theme-font:minor-bidi;color:black;&#xa;mso-color-index:1;mso-font-kerning:12.0pt;language:en-US;text-combine:letters;&#xa;mso-style-textfill-type:solid;mso-style-textfill-fill-themecolor:text1;&#xa;mso-style-textfill-fill-color:black;mso-style-textfill-fill-alpha:100.0%&quot;&gt;&amp;lt;&amp;lt;include&amp;gt;&amp;gt;&lt;/span&gt;&lt;/p&gt;" style="text;whiteSpace=wrap;html=1;" parent="1" vertex="1">
          <mxGeometry x="730" y="350" width="120" height="50" as="geometry" />
        </mxCell>
        <mxCell id="9jKqP15oDGAoKN6BKpKO-16" value="クライアント" style="text;html=1;align=center;verticalAlign=middle;whiteSpace=wrap;rounded=0;" parent="1" vertex="1">
          <mxGeometry x="80" y="500" width="80" height="30" as="geometry" />
        </mxCell>
        <mxCell id="9jKqP15oDGAoKN6BKpKO-17" value="サーバ" style="text;html=1;align=center;verticalAlign=middle;whiteSpace=wrap;rounded=0;" parent="1" vertex="1">
          <mxGeometry x="1080" y="500" width="60" height="30" as="geometry" />
        </mxCell>
        <mxCell id="9jKqP15oDGAoKN6BKpKO-21" value="&lt;font style=&quot;font-size: 18px;&quot;&gt;&lt;b&gt;サーバシステム&lt;/b&gt;&lt;/font&gt;" style="text;html=1;align=center;verticalAlign=middle;whiteSpace=wrap;rounded=0;" parent="1" vertex="1">
          <mxGeometry x="565" y="200" width="160" height="30" as="geometry" />
        </mxCell>
        <mxCell id="9jKqP15oDGAoKN6BKpKO-23" value="" style="endArrow=none;html=1;rounded=0;entryX=1;entryY=0.25;entryDx=0;entryDy=0;exitX=0;exitY=0.5;exitDx=0;exitDy=0;" parent="1" source="9jKqP15oDGAoKN6BKpKO-7" target="n8WTqfIcoDv5qlmcL_Hy-2" edge="1">
          <mxGeometry width="50" height="50" relative="1" as="geometry">
            <mxPoint x="800" y="570" as="sourcePoint" />
            <mxPoint x="850" y="520" as="targetPoint" />
          </mxGeometry>
        </mxCell>
        <mxCell id="9jKqP15oDGAoKN6BKpKO-24" value="プレイヤー名受信" style="text;html=1;align=center;verticalAlign=middle;whiteSpace=wrap;rounded=0;" parent="1" vertex="1">
          <mxGeometry x="270" y="374" width="130" height="30" as="geometry" />
        </mxCell>
        <mxCell id="9jKqP15oDGAoKN6BKpKO-25" style="edgeStyle=orthogonalEdgeStyle;rounded=0;orthogonalLoop=1;jettySize=auto;html=1;exitX=0.5;exitY=1;exitDx=0;exitDy=0;" parent="1" source="9jKqP15oDGAoKN6BKpKO-15" target="9jKqP15oDGAoKN6BKpKO-15" edge="1">
          <mxGeometry relative="1" as="geometry" />
        </mxCell>
        <mxCell id="9jKqP15oDGAoKN6BKpKO-26" value="" style="endArrow=none;html=1;rounded=0;exitX=1;exitY=0.5;exitDx=0;exitDy=0;entryX=0.028;entryY=0.839;entryDx=0;entryDy=0;entryPerimeter=0;" parent="1" source="9jKqP15oDGAoKN6BKpKO-9" target="n8WTqfIcoDv5qlmcL_Hy-3" edge="1">
          <mxGeometry width="50" height="50" relative="1" as="geometry">
            <mxPoint x="800" y="570" as="sourcePoint" />
            <mxPoint x="850" y="520" as="targetPoint" />
          </mxGeometry>
        </mxCell>
        <mxCell id="9jKqP15oDGAoKN6BKpKO-27" value="" style="endArrow=none;html=1;rounded=0;entryX=0.25;entryY=1;entryDx=0;entryDy=0;exitX=0.944;exitY=0.75;exitDx=0;exitDy=0;exitPerimeter=0;" parent="1" source="9jKqP15oDGAoKN6BKpKO-11" target="n8WTqfIcoDv5qlmcL_Hy-3" edge="1">
          <mxGeometry width="50" height="50" relative="1" as="geometry">
            <mxPoint x="800" y="570" as="sourcePoint" />
            <mxPoint x="850" y="520" as="targetPoint" />
            <Array as="points" />
          </mxGeometry>
        </mxCell>
        <mxCell id="9jKqP15oDGAoKN6BKpKO-28" value="" style="endArrow=none;html=1;rounded=0;entryX=0;entryY=0.5;entryDx=0;entryDy=0;exitX=1;exitY=0.5;exitDx=0;exitDy=0;" parent="1" source="9jKqP15oDGAoKN6BKpKO-6" target="n8WTqfIcoDv5qlmcL_Hy-3" edge="1">
          <mxGeometry width="50" height="50" relative="1" as="geometry">
            <mxPoint x="800" y="570" as="sourcePoint" />
            <mxPoint x="850" y="520" as="targetPoint" />
          </mxGeometry>
        </mxCell>
        <mxCell id="9jKqP15oDGAoKN6BKpKO-30" value="" style="endArrow=none;html=1;rounded=0;entryX=1;entryY=0;entryDx=0;entryDy=0;exitX=0;exitY=0.5;exitDx=0;exitDy=0;" parent="1" source="9jKqP15oDGAoKN6BKpKO-12" target="n8WTqfIcoDv5qlmcL_Hy-2" edge="1">
          <mxGeometry width="50" height="50" relative="1" as="geometry">
            <mxPoint x="350" y="260" as="sourcePoint" />
            <mxPoint x="850" y="520" as="targetPoint" />
            <Array as="points">
              <mxPoint x="300" y="290" />
            </Array>
          </mxGeometry>
        </mxCell>
        <mxCell id="9jKqP15oDGAoKN6BKpKO-31" value="先手後手受信" style="text;html=1;align=center;verticalAlign=middle;whiteSpace=wrap;rounded=0;" parent="1" vertex="1">
          <mxGeometry x="280" y="260" width="110" height="30" as="geometry" />
        </mxCell>
        <mxCell id="9jKqP15oDGAoKN6BKpKO-32" value="ログイン情報受信" style="text;html=1;align=center;verticalAlign=middle;whiteSpace=wrap;rounded=0;" parent="1" vertex="1">
          <mxGeometry x="880" y="450" width="110" height="30" as="geometry" />
        </mxCell>
        <mxCell id="9jKqP15oDGAoKN6BKpKO-33" value="設置座標の受信" style="text;html=1;align=center;verticalAlign=middle;whiteSpace=wrap;rounded=0;" parent="1" vertex="1">
          <mxGeometry x="760" y="680" width="110" height="30" as="geometry" />
        </mxCell>
        <mxCell id="9jKqP15oDGAoKN6BKpKO-35" value="" style="endArrow=none;html=1;rounded=0;exitX=1;exitY=0.5;exitDx=0;exitDy=0;entryX=0;entryY=1;entryDx=0;entryDy=0;" parent="1" source="9jKqP15oDGAoKN6BKpKO-8" target="n8WTqfIcoDv5qlmcL_Hy-3" edge="1">
          <mxGeometry width="50" height="50" relative="1" as="geometry">
            <mxPoint x="800" y="570" as="sourcePoint" />
            <mxPoint x="850" y="520" as="targetPoint" />
            <Array as="points" />
          </mxGeometry>
        </mxCell>
        <mxCell id="9jKqP15oDGAoKN6BKpKO-36" value="送信" style="text;html=1;align=center;verticalAlign=middle;whiteSpace=wrap;rounded=0;" parent="1" vertex="1">
          <mxGeometry x="767" y="578" width="60" height="30" as="geometry" />
        </mxCell>
        <mxCell id="9jKqP15oDGAoKN6BKpKO-38" value="" style="endArrow=none;html=1;rounded=0;entryX=0;entryY=0.5;entryDx=0;entryDy=0;exitX=1.003;exitY=0.437;exitDx=0;exitDy=0;exitPerimeter=0;" parent="1" source="n8WTqfIcoDv5qlmcL_Hy-2" target="9jKqP15oDGAoKN6BKpKO-6" edge="1">
          <mxGeometry width="50" height="50" relative="1" as="geometry">
            <mxPoint x="800" y="570" as="sourcePoint" />
            <mxPoint x="850" y="520" as="targetPoint" />
          </mxGeometry>
        </mxCell>
        <mxCell id="9jKqP15oDGAoKN6BKpKO-39" value="" style="endArrow=none;html=1;rounded=0;entryX=0.75;entryY=1;entryDx=0;entryDy=0;exitX=0;exitY=0.5;exitDx=0;exitDy=0;" parent="1" source="9jKqP15oDGAoKN6BKpKO-11" target="n8WTqfIcoDv5qlmcL_Hy-2" edge="1">
          <mxGeometry width="50" height="50" relative="1" as="geometry">
            <mxPoint x="800" y="570" as="sourcePoint" />
            <mxPoint x="850" y="520" as="targetPoint" />
            <Array as="points" />
          </mxGeometry>
        </mxCell>
        <mxCell id="9jKqP15oDGAoKN6BKpKO-40" value="" style="endArrow=none;html=1;rounded=0;exitX=0;exitY=1;exitDx=0;exitDy=0;" parent="1" source="9jKqP15oDGAoKN6BKpKO-8" edge="1">
          <mxGeometry width="50" height="50" relative="1" as="geometry">
            <mxPoint x="800" y="570" as="sourcePoint" />
            <mxPoint x="240" y="550" as="targetPoint" />
            <Array as="points" />
          </mxGeometry>
        </mxCell>
        <mxCell id="9jKqP15oDGAoKN6BKpKO-41" value="相手の手を受信" style="text;html=1;align=center;verticalAlign=middle;whiteSpace=wrap;rounded=0;" parent="1" vertex="1">
          <mxGeometry x="305" y="578" width="130" height="30" as="geometry" />
        </mxCell>
        <mxCell id="9jKqP15oDGAoKN6BKpKO-42" value="自分の手を送信" style="text;html=1;align=center;verticalAlign=middle;whiteSpace=wrap;rounded=0;" parent="1" vertex="1">
          <mxGeometry x="310" y="610" width="60" height="30" as="geometry" />
        </mxCell>
        <mxCell id="9jKqP15oDGAoKN6BKpKO-43" value="ログイン情報送信" style="text;html=1;align=center;verticalAlign=middle;whiteSpace=wrap;rounded=0;" parent="1" vertex="1">
          <mxGeometry x="240" y="450" width="120" height="30" as="geometry" />
        </mxCell>
        <mxCell id="9jKqP15oDGAoKN6BKpKO-48" value="" style="endArrow=none;html=1;rounded=0;entryX=1;entryY=0.5;entryDx=0;entryDy=0;" parent="1" target="9jKqP15oDGAoKN6BKpKO-12" edge="1">
          <mxGeometry width="50" height="50" relative="1" as="geometry">
            <mxPoint x="1000" y="440" as="sourcePoint" />
            <mxPoint x="850" y="520" as="targetPoint" />
          </mxGeometry>
        </mxCell>
        <mxCell id="9jKqP15oDGAoKN6BKpKO-49" value="&lt;span style=&quot;color: rgb(0, 0, 0); font-family: Helvetica; font-size: 12px; font-style: normal; font-variant-ligatures: normal; font-variant-caps: normal; font-weight: 400; letter-spacing: normal; orphans: 2; text-align: center; text-indent: 0px; text-transform: none; widows: 2; word-spacing: 0px; -webkit-text-stroke-width: 0px; white-space: normal; background-color: rgb(236, 236, 236); text-decoration-thickness: initial; text-decoration-style: initial; text-decoration-color: initial; float: none; display: inline !important;&quot;&gt;先手後手送信&lt;/span&gt;" style="text;whiteSpace=wrap;html=1;" parent="1" vertex="1">
          <mxGeometry x="920" y="334" width="110" height="40" as="geometry" />
        </mxCell>
        <mxCell id="9jKqP15oDGAoKN6BKpKO-50" value="" style="endArrow=none;html=1;rounded=0;entryX=1;entryY=0.75;entryDx=0;entryDy=0;exitX=0.04;exitY=0.629;exitDx=0;exitDy=0;exitPerimeter=0;" parent="1" source="9jKqP15oDGAoKN6BKpKO-9" target="n8WTqfIcoDv5qlmcL_Hy-2" edge="1">
          <mxGeometry width="50" height="50" relative="1" as="geometry">
            <mxPoint x="800" y="570" as="sourcePoint" />
            <mxPoint x="850" y="520" as="targetPoint" />
            <Array as="points" />
          </mxGeometry>
        </mxCell>
        <mxCell id="9jKqP15oDGAoKN6BKpKO-51" value="信号送信" style="text;html=1;align=center;verticalAlign=middle;whiteSpace=wrap;rounded=0;" parent="1" vertex="1">
          <mxGeometry x="305" y="510" width="60" height="30" as="geometry" />
        </mxCell>
        <mxCell id="Rrsp1d-ZpLVyZRaoSP93-2" value="信号送信・時間計測" style="text;html=1;align=center;verticalAlign=middle;whiteSpace=wrap;rounded=0;" vertex="1" parent="1">
          <mxGeometry x="827" y="520" width="123" height="30" as="geometry" />
        </mxCell>
      </root>
    </mxGraphModel>
  </diagram>
</mxfile>
